<?xml version="1.0" standalone="no"?><!DOCTYPE svg PUBLIC "-//W3C//DTD SVG 1.1//EN" "http://www.w3.org/Graphics/SVG/1.1/DTD/svg11.dtd"><svg t="1536373736941" class="icon" style="" viewBox="0 0 1024 1024" version="1.1" xmlns="http://www.w3.org/2000/svg" p-id="2203" xmlns:xlink="http://www.w3.org/1999/xlink" width="200" height="200"><defs><style type="text/css"></style></defs><path d="M511.997953 127.896902c-212.144678 0-384.101051 172.004469-384.101051 384.101051 0 212.148771 171.956374 384.105145 384.101051 384.105145 212.148771 0 384.105145-171.956374 384.105145-384.105145C896.103098 299.901371 724.146725 127.896902 511.997953 127.896902zM521.207709 736.319975c-30.648021 0-55.523571-24.87555-55.523571-55.56655 0-30.648021 24.87555-55.485709 55.523571-55.485709 30.652114 0 55.527664 24.836665 55.527664 55.485709C576.735373 711.405539 551.859823 736.319975 521.207709 736.319975zM595.205027 498.781954c-24.811082 22.887266-27.04496 46.187949-27.320229 48.180326-3.128247 25.225521-20.584827 37.802978-44.229341 38.455847-22.372543 0.6191-40.894386-16.460904-44.124963-37.905308-1.478677-19.279089-1.410116-54.368258 33.093722-82.066087 11.924587-9.588379 27.76639-27.01119 27.76639-38.422078 0.070608-24.467251-15.705704-40.723493-34.501792-41.411155-22.097274-0.824785-35.70827 17.629519-39.417755 33.644261l0 0.445138c0 0-5.739724 41.172725-42.097794 41.961694-23.164582 0.51677-41.960671-18.799158-41.995463-41.961694 0-78.044494 69.384253-125.883035 128.45972-125.883035 55.776328 0 125.09202 45.157479 126.639259 116.468618C638.20026 443.692265 631.773897 465.068108 595.205027 498.781954z" p-id="2204"></path></svg>